<?xml version="1.0" encoding="utf-8"?>
<!-- Generator: Adobe Illustrator 27.5.0, SVG Export Plug-In . SVG Version: 6.00 Build 0)  -->
<svg version="1.1" id="Layer_1" xmlns="http://www.w3.org/2000/svg" xmlns:xlink="http://www.w3.org/1999/xlink" x="0px"
     y="0px"
     viewBox="0 0 512 512" style="enable-background:new 0 0 512 512;" xml:space="preserve">
    <g fill="#6bc948">
	<path d="M256,0c-85.7,0-155.2,68.2-155.2,152.2C100.8,236.3,256,512,256,512s155.2-275.7,155.2-359.8C411.2,68.2,341.7,0,256,0z"></path>
</g>
    <g transform="scale(0.45) translate(315, 100)" fill="#FFFFFF">
	<path d="M256,0c124.8,0,224,35.2,224,80v16v320c0,17.7-14.3,32-32,32v32c0,17.7-14.3,32-32,32h-32c-17.7,0-32-14.3-32-32v-32H160
		v32c0,17.7-14.3,32-32,32H96c-17.7,0-32-14.3-32-32v-32c-17.7,0-32-14.3-32-32V96V80C32,35.2,131.2,0,256,0z M96,128v128
		c0,17.7,14.3,32,32,32h256c17.7,0,32-14.3,32-32V128c0-17.7-14.3-32-32-32H128C110.3,96,96,110.3,96,128z M112,400
		c17.67,0,32-14.33,32-32s-14.33-32-32-32s-32,14.33-32,32S94.33,400,112,400z M400,400c17.67,0,32-14.33,32-32s-14.33-32-32-32
		s-32,14.33-32,32S382.33,400,400,400z"/>
</g>
</svg>
