<?xml version="1.0" encoding="utf-8"?>
<!-- Generator: Adobe Illustrator 28.0.0, SVG Export Plug-In . SVG Version: 6.00 Build 0)  -->
<svg version="1.1" id="Layer_1" xmlns="http://www.w3.org/2000/svg" xmlns:xlink="http://www.w3.org/1999/xlink" x="0px"
     y="0px"
     viewBox="0 0 512 512" style="enable-background:new 0 0 512 512;" xml:space="preserve">
    <g fill="#6bc948">
	<path d="M256,0c-85.7,0-155.2,68.2-155.2,152.2C100.8,236.3,256,512,256,512s155.2-275.7,155.2-359.8C411.2,68.2,341.7,0,256,0z"></path>
</g>
    <g transform="scale(0.45) translate(315, 70)" fill="#FFFFFF">
	<circle cx="256" cy="274.29" r="73.14"/>
        <path d="M484.57,128h-94.86c-3.43,0-7.68-2.22-10.99-5.71l-31.18-48.91c-12.69-18.51-18.4-18.51-38.97-18.51H203.43
		c-20.57,0-27.43,0-38.94,18.53l-31.21,48.9c-2.54,2.77-6.1,5.71-9.85,5.71v-18.29c0-5.05-4.09-9.14-9.14-9.14H68.57
		c-5.05,0-9.14,4.09-9.14,9.14V128h-32C12.28,128,0,140.28,0,155.43v274.29c0,15.15,12.28,27.43,27.43,27.43h457.14
		c15.15,0,27.43-12.28,27.43-27.43V155.43C512,140.28,499.72,128,484.57,128z M261.15,383.89c-60.53,2.84-111.9-43.92-114.74-104.45
		c-2.84-60.53,43.92-111.9,104.45-114.74c60.53-2.84,111.9,43.92,114.74,104.45c0.16,3.43,0.16,6.87,0,10.3
		C362.89,335.96,317.68,381.17,261.15,383.89z"/>
</g>
</svg>
