<svg xmlns="http://www.w3.org/2000/svg" xmlns:xlink="http://www.w3.org/1999/xlink" version="1.1" id="Layer_1" x="0px" y="0px" viewBox="0 0 512 512" style="enable-background:new 0 0 512 512;/* background: #6bc948; */" xml:space="preserve">
<g fill="#6bc948">
	<path d="M256,0c-85.7,0-155.2,68.2-155.2,152.2C100.8,236.3,256,512,256,512s155.2-275.7,155.2-359.8C411.2,68.2,341.7,0,256,0z"></path>
</g>
    <g transform="scale(0.55) translate(190, 50)" fill="#FFFFFF">
    <path d="M252.87,48c0-26.51,21.49-48,48-48s48,21.49,48,48s-21.49,48-48,48S252.87,74.51,252.87,48z M304.17,230.7l-19.1,76.3   l49.7,49.7c9,9,14.1,21.2,14.1,33.9V480c0,17.7-14.3,32-32,32s-32-14.3-32-32v-82.7l-73.9-73.9c-15.8-15.8-22.2-38.6-16.9-60.3   l20.4-84c8.3-34.1,42.7-54.9,76.7-46.4c19,4.8,35.6,16.4,46.4,32.7l28.4,42.6h30.9v-24c0-13.3,10.7-24,24-24s24,10.7,24,24v55.8   c0,0.1,0,0.2,0,0.2v0.2V488c0,13.3-10.7,24-24,24s-24-10.7-24-24V272h-39.4c-16,0-31-8-39.9-21.4l-13.3-20L304.17,230.7z    M141.97,471.9l36.2-137.9c3,4.2,6.4,8.2,10.1,11.9l41.9,41.9l-26.4,100.3c-4.5,17.1-22,27.3-39.1,22.8s-27.3-22-22.8-39.1   L141.97,471.9z M197.47,125.9l-35.2,140.6c-3,12.1-14.9,19.9-27.2,17.9l-47.9-8c-14-2.3-22.9-16.3-19.2-30l24.8-91.4   c9.5-34.8,41.1-59,77.2-59h4.2c15.6,0,27.1,14.7,23.3,29.8L197.47,125.9z"></path>
</g>

</svg>
