<?xml version="1.0" encoding="utf-8"?>
<!-- Generator: Adobe Illustrator 27.7.0, SVG Export Plug-In . SVG Version: 6.00 Build 0)  -->
<svg version="1.1" id="Layer_1" xmlns="http://www.w3.org/2000/svg" xmlns:xlink="http://www.w3.org/1999/xlink" x="0px" y="0px"
	 viewBox="0 0 512 512" style="enable-background:new 0 0 512 512;" xml:space="preserve">
    <g fill="#6bc948">
	<path d="M256,0c-85.7,0-155.2,68.2-155.2,152.2C100.8,236.3,256,512,256,512s155.2-275.7,155.2-359.8C411.2,68.2,341.7,0,256,0z"></path>
</g>
<g transform="scale(0.47) translate(290, 80)" fill="#FFFFFF">
	<path d="M25.6,89.61c12.98,0,23.9,9.72,25.42,22.6l0.18,3v153.6h153.6v-128c0-12.98,9.72-23.9,22.6-25.42l3-0.18h204.8
		c40.67,0,74.29,31.7,76.67,72.29l0.13,4.51v204.8c-0.02,14.14-11.49,25.59-25.63,25.57c-12.96-0.01-23.86-9.71-25.39-22.58l-0.18-3
		v-76.8H51.2v76.8c-0.02,14.14-11.49,25.59-25.63,25.57c-12.96-0.01-23.86-9.71-25.39-22.58l-0.18-3v-281.6
		C0,101.08,11.46,89.61,25.6,89.61z"/>
	<path d="M128,140.81c28.28,0.01,51.19,22.94,51.18,51.22c-0.01,28.28-22.94,51.19-51.22,51.18c-26.78-0.01-49.03-20.65-51.04-47.36
		l-0.13-3.84l0.13-3.84C78.94,161.46,101.21,140.81,128,140.81z"/>
</g>
</svg>
